<svg width="36" height="36" viewBox="0 0 36 36" fill="none" xmlns="http://www.w3.org/2000/svg">
<path d="M33.9578 14.3698L27.2888 13.3922L23.2246 7.07491C23.0113 6.74425 22.7119 6.47158 22.3554 6.28328C21.9988 6.09498 21.5973 5.99742 21.1895 6.00005L4.15666 6.12918C3.66521 6.13313 3.18725 6.28264 2.7892 6.55694C2.39116 6.83123 2.09279 7.21669 1.93557 7.65975L0 13.1209V25.6771H4.06365C4.37956 26.6542 5.01635 27.5091 5.88055 28.1165C6.74474 28.7238 7.79082 29.0516 8.86519 29.0516C9.93956 29.0516 10.9856 28.7238 11.8498 28.1165C12.714 27.5091 13.3508 26.6542 13.6667 25.6771H21.203C21.5189 26.6542 22.1557 27.5091 23.0199 28.1165C23.8841 28.7238 24.9302 29.0516 26.0045 29.0516C27.0789 29.0516 28.125 28.7238 28.9892 28.1165C29.8534 27.5091 30.4902 26.6542 30.8061 25.6771H35.4607V16.0372C35.4627 15.6338 35.3118 15.2432 35.0358 14.937C34.7598 14.6308 34.3771 14.4295 33.9578 14.3698ZM15.3663 8.29352L21.2083 8.24923L24.4663 13.3137L15.3663 13.3106V8.29352ZM4.17558 8.37843L13.0023 8.31151V13.3099L2.42913 13.3063L4.17558 8.37843ZM8.86519 26.8018C8.33918 26.8018 7.82498 26.6534 7.38762 26.3753C6.95025 26.0973 6.60937 25.702 6.40808 25.2396C6.20678 24.7772 6.15411 24.2684 6.25673 23.7775C6.35935 23.2867 6.61265 22.8358 6.9846 22.4818C7.35654 22.1279 7.83043 21.8869 8.34633 21.7893C8.86224 21.6916 9.39698 21.7418 9.88295 21.9333C10.3689 22.1248 10.7843 22.4492 11.0765 22.8653C11.3688 23.2815 11.5247 23.7707 11.5247 24.2712C11.524 24.9421 11.2435 25.5854 10.7449 26.0598C10.2463 26.5342 9.5703 26.801 8.86519 26.8018ZM26.0045 26.8018C25.4785 26.8018 24.9643 26.6534 24.527 26.3753C24.0896 26.0973 23.7487 25.702 23.5474 25.2396C23.3461 24.7772 23.2935 24.2684 23.3961 23.7775C23.4987 23.2867 23.752 22.8358 24.124 22.4818C24.4959 22.1279 24.9698 21.8869 25.4857 21.7893C26.0016 21.6916 26.5363 21.7418 27.0223 21.9333C27.5083 22.1248 27.9236 22.4492 28.2159 22.8653C28.5081 23.2815 28.6641 23.7707 28.6641 24.2712C28.6633 24.9421 28.3829 25.5854 27.8843 26.0598C27.3857 26.5342 26.7097 26.801 26.0045 26.8018ZM33.0967 23.4277H30.9482C30.7405 22.3239 30.1315 21.3248 29.2278 20.6051C28.324 19.8855 27.183 19.4912 26.0045 19.4912C24.8261 19.4912 23.6851 19.8855 22.7813 20.6051C21.8776 21.3248 21.2686 22.3239 21.0609 23.4277H13.8089C13.6012 22.3239 12.9922 21.3248 12.0884 20.6051C11.1846 19.8855 10.0437 19.4912 8.86519 19.4912C7.6867 19.4912 6.54574 19.8855 5.64198 20.6051C4.73821 21.3248 4.1292 22.3239 3.92151 23.4277H2.36405V15.5567L26.7822 15.5938L33.0967 16.5195V23.4277Z" fill="#4770E5"/>
</svg>
