<svg width="36" height="36" viewBox="0 0 36 36" fill="none" xmlns="http://www.w3.org/2000/svg">
<path d="M31.7999 26.6C32.2771 26.5994 32.7346 26.4096 33.0721 26.0722C33.4095 25.7347 33.5993 25.2772 33.5999 24.8V6.8C33.5993 6.32278 33.4095 5.86527 33.0721 5.52782C32.7346 5.19038 32.2771 5.00056 31.7999 5H4.1999C3.72268 5.00056 3.26517 5.19038 2.92772 5.52782C2.59028 5.86527 2.40046 6.32278 2.3999 6.8V24.8C2.40046 25.2772 2.59028 25.7347 2.92772 26.0722C3.26517 26.4096 3.72268 26.5994 4.1999 26.6H31.7999ZM4.7999 7.4H31.1999V24.2H4.7999V7.4Z" fill="#F7F7F7"/>
<path d="M36 29H0V31.4H36V29Z" fill="#F7F7F7"/>
</svg>
