<svg width="60" height="28" viewBox="0 0 60 28" fill="none" xmlns="http://www.w3.org/2000/svg">
<path d="M3.88666 21L0.168656 21.078C0.0646563 20.766 0.0646563 20.454 0.168656 20.142L2.32666 19.856C2.39599 18.972 2.43066 17.9493 2.43066 16.788V1.448L0.324656 1.188C0.255323 0.928 0.255323 0.607333 0.324656 0.225999C1.27799 0.295333 2.46532 0.33 3.88666 0.33C5.15199 0.33 6.34799 0.303999 7.47466 0.251999C7.57866 0.563999 7.57866 0.875999 7.47466 1.188L5.31666 1.5C5.24732 2.15867 5.21266 3.17267 5.21266 4.542V19.674H13.7927L15.0147 14.968C15.2747 14.8987 15.5953 14.8987 15.9767 14.968L15.9507 21H3.88666ZM17.7371 14.084C17.7371 13.044 17.8845 12.0733 18.1791 11.172C18.4911 10.2533 18.9331 9.456 19.5051 8.78C20.0771 8.104 20.7618 7.57533 21.5591 7.194C22.3738 6.79533 23.2838 6.596 24.2891 6.596C25.2771 6.596 26.1785 6.79533 26.9931 7.194C27.8078 7.57533 28.5011 8.104 29.0731 8.78C29.6625 9.456 30.1131 10.2533 30.4251 11.172C30.7371 12.0733 30.8931 13.044 30.8931 14.084C30.8931 15.1587 30.7285 16.1467 30.3991 17.048C30.0871 17.9493 29.6365 18.738 29.0471 19.414C28.4751 20.0727 27.7818 20.5927 26.9671 20.974C26.1525 21.338 25.2598 21.52 24.2891 21.52C23.2665 21.52 22.3478 21.338 21.5331 20.974C20.7358 20.61 20.0511 20.0987 19.4791 19.44C18.9245 18.7813 18.4911 18.0013 18.1791 17.1C17.8845 16.1813 17.7371 15.176 17.7371 14.084ZM21.5331 9.3C20.7878 10.3573 20.4151 11.952 20.4151 14.084C20.4151 15.1413 20.5105 16.0687 20.7011 16.866C20.9091 17.6633 21.1865 18.3307 21.5331 18.868C21.8798 19.388 22.2871 19.778 22.7551 20.038C23.2231 20.298 23.7345 20.428 24.2891 20.428C24.8265 20.428 25.3378 20.298 25.8231 20.038C26.3085 19.778 26.7245 19.388 27.0711 18.868C27.4178 18.3307 27.6951 17.6633 27.9031 16.866C28.1111 16.0687 28.2151 15.1413 28.2151 14.084C28.2151 13.0267 28.1111 12.0993 27.9031 11.302C27.6951 10.4873 27.4091 9.82 27.0451 9.3C26.6985 8.76267 26.2825 8.364 25.7971 8.104C25.3291 7.82667 24.8265 7.688 24.2891 7.688C23.2145 7.688 22.2958 8.22533 21.5331 9.3ZM35.1259 21.286C35.2819 21.3553 35.4119 21.5027 35.5159 21.728C34.9439 22.196 34.6579 22.898 34.6579 23.834C34.6579 24.666 35.0392 25.3333 35.8019 25.836C36.5645 26.3387 37.5525 26.59 38.7659 26.59C40.0139 26.59 41.0539 26.356 41.8859 25.888C42.7179 25.4373 43.1339 24.796 43.1339 23.964C43.1339 23.0627 42.9692 22.3953 42.6399 21.962C42.3105 21.546 41.6519 21.2947 40.6639 21.208L35.8019 20.766C35.2645 20.6967 34.8139 20.4193 34.4499 19.934C34.1032 19.4313 33.9299 18.946 33.9299 18.478L35.6719 15.592C34.8745 15.1413 34.2679 14.5433 33.8519 13.798C33.4532 13.0527 33.2539 12.29 33.2539 11.51C33.2539 10.0367 33.7999 8.84933 34.8919 7.948C35.9839 7.04667 37.2405 6.596 38.6619 6.596C40.0312 6.596 41.2359 6.96 42.2759 7.688C42.3625 5.31333 43.2465 4.08267 44.9279 3.996C45.3785 4.1 45.6039 4.47267 45.6039 5.114C45.6039 5.46067 45.5692 5.842 45.4999 6.258C44.8239 6.31 44.2692 6.53533 43.8359 6.934C43.4025 7.31533 43.0905 7.75733 42.8999 8.26C43.7665 9.12667 44.1999 10.21 44.1999 11.51C44.1999 12.8793 43.6452 14.0233 42.5359 14.942C41.4265 15.8433 40.1352 16.294 38.6619 16.294C37.8819 16.294 37.1799 16.19 36.5559 15.982L35.6719 18.296L42.1459 18.946C43.1512 19.0673 43.9139 19.44 44.4339 20.064C44.9712 20.6707 45.2399 21.468 45.2399 22.456C45.2399 24.1893 44.6159 25.5153 43.3679 26.434C42.1199 27.37 40.4299 27.838 38.2979 27.838C36.5299 27.838 35.1519 27.5173 34.1639 26.876C33.1759 26.2347 32.6819 25.3767 32.6819 24.302C32.6819 23.574 32.9159 22.924 33.3839 22.352C33.8519 21.7973 34.4325 21.442 35.1259 21.286ZM35.5939 11.51C35.5939 12.5153 35.8712 13.3733 36.4259 14.084C36.9979 14.7947 37.7519 15.15 38.6879 15.15C39.6065 15.15 40.3605 14.8033 40.9499 14.11C41.5392 13.3993 41.8339 12.5327 41.8339 11.51C41.8339 10.4007 41.5392 9.482 40.9499 8.754C40.3779 8.00867 39.6239 7.636 38.6879 7.636C37.8039 7.636 37.0672 8.00867 36.4779 8.754C35.8885 9.49933 35.5939 10.418 35.5939 11.51ZM46.7586 14.084C46.7586 13.044 46.906 12.0733 47.2006 11.172C47.5126 10.2533 47.9546 9.456 48.5266 8.78C49.0986 8.104 49.7833 7.57533 50.5806 7.194C51.3953 6.79533 52.3053 6.596 53.3106 6.596C54.2986 6.596 55.2 6.79533 56.0146 7.194C56.8293 7.57533 57.5226 8.104 58.0946 8.78C58.684 9.456 59.1346 10.2533 59.4466 11.172C59.7586 12.0733 59.9146 13.044 59.9146 14.084C59.9146 15.1587 59.75 16.1467 59.4206 17.048C59.1086 17.9493 58.658 18.738 58.0686 19.414C57.4966 20.0727 56.8033 20.5927 55.9886 20.974C55.174 21.338 54.2813 21.52 53.3106 21.52C52.288 21.52 51.3693 21.338 50.5546 20.974C49.7573 20.61 49.0726 20.0987 48.5006 19.44C47.946 18.7813 47.5126 18.0013 47.2006 17.1C46.906 16.1813 46.7586 15.176 46.7586 14.084ZM50.5546 9.3C49.8093 10.3573 49.4366 11.952 49.4366 14.084C49.4366 15.1413 49.532 16.0687 49.7226 16.866C49.9306 17.6633 50.208 18.3307 50.5546 18.868C50.9013 19.388 51.3086 19.778 51.7766 20.038C52.2446 20.298 52.756 20.428 53.3106 20.428C53.848 20.428 54.3593 20.298 54.8446 20.038C55.33 19.778 55.746 19.388 56.0926 18.868C56.4393 18.3307 56.7166 17.6633 56.9246 16.866C57.1326 16.0687 57.2366 15.1413 57.2366 14.084C57.2366 13.0267 57.1326 12.0993 56.9246 11.302C56.7166 10.4873 56.4306 9.82 56.0666 9.3C55.72 8.76267 55.304 8.364 54.8186 8.104C54.3506 7.82667 53.848 7.688 53.3106 7.688C52.236 7.688 51.3173 8.22533 50.5546 9.3Z" fill="black"/>
</svg>
