<svg width="27" height="27" viewBox="0 0 27 27" fill="none" xmlns="http://www.w3.org/2000/svg">
<path d="M26.1821 12.8768C26.0525 10.0044 24.9636 7.25634 23.087 5.06555C21.2103 2.87477 18.6525 1.36571 15.8165 0.776081C12.9805 0.186449 10.0273 0.549745 7.42225 1.80875C4.81718 3.06775 2.7082 5.15091 1.4275 7.73012C0.146795 10.3093 -0.232849 13.238 0.348362 16.0549C0.929573 18.8717 2.43861 21.4167 4.63779 23.2889C6.83696 25.1611 9.6013 26.2542 12.4954 26.3959C15.3895 26.5377 18.2489 25.7201 20.6232 24.0719V26.411H26.1956V12.8768H26.1821ZM13.1386 20.8851C11.1533 20.8851 9.24936 20.1026 7.84556 18.7096C6.44176 17.3166 5.65311 15.4273 5.65311 13.4573H20.6232C20.6233 14.4327 20.4298 15.3986 20.0537 16.2998C19.6776 17.2009 19.1263 18.0198 18.4313 18.7095C17.7363 19.3993 16.9112 19.9464 16.003 20.3197C15.0949 20.693 14.1216 20.8851 13.1386 20.8851Z" fill="#4770E5"/>
</svg>
