<svg width="54" height="54" viewBox="0 0 54 54" fill="none" xmlns="http://www.w3.org/2000/svg">
<rect width="54" height="54" fill="#4770E5"/>
<path d="M16.4384 22.408V30.028H20.6744V31H15.3464V22.408H16.4384ZM24.1892 24.7C25.1172 24.7 25.8252 25.024 26.3132 25.672C26.7452 26.232 26.9612 26.992 26.9612 27.952C26.9612 29.024 26.6812 29.84 26.1212 30.4C25.6412 30.888 24.9932 31.132 24.1772 31.132C23.2332 31.132 22.5132 30.816 22.0172 30.184C21.5852 29.632 21.3692 28.888 21.3692 27.952C21.3692 26.864 21.6532 26.028 22.2212 25.444C22.7092 24.948 23.3652 24.7 24.1892 24.7ZM24.1892 25.6C23.6292 25.6 23.1892 25.812 22.8692 26.236C22.5492 26.652 22.3892 27.224 22.3892 27.952C22.3892 28.712 22.5692 29.292 22.9292 29.692C23.2412 30.044 23.6572 30.22 24.1772 30.22C24.7292 30.22 25.1572 30.02 25.4612 29.62C25.7732 29.22 25.9292 28.664 25.9292 27.952C25.9292 27.168 25.7532 26.568 25.4012 26.152C25.0972 25.784 24.6932 25.6 24.1892 25.6ZM32.348 24.832H33.26V29.992C33.26 31.328 33.044 32.256 32.612 32.776C32.18 33.304 31.472 33.568 30.488 33.568C29.72 33.568 29.12 33.384 28.688 33.016C28.304 32.688 28.088 32.252 28.04 31.708H29.048C29.096 32.028 29.216 32.264 29.408 32.416C29.688 32.632 30.064 32.74 30.536 32.74C31.176 32.74 31.632 32.548 31.904 32.164C32.136 31.836 32.252 31.276 32.252 30.484V30.088C31.74 30.784 31.124 31.132 30.404 31.132C29.7 31.132 29.104 30.868 28.616 30.34C28.096 29.772 27.836 28.996 27.836 28.012C27.836 26.956 28.108 26.116 28.652 25.492C29.132 24.964 29.736 24.7 30.464 24.7C31.248 24.7 31.876 25.052 32.348 25.756V24.832ZM30.572 25.6C30.044 25.6 29.624 25.812 29.312 26.236C29.008 26.652 28.856 27.224 28.856 27.952C28.856 28.712 29.032 29.292 29.384 29.692C29.68 30.044 30.08 30.22 30.584 30.22C31.112 30.22 31.52 30.02 31.808 29.62C32.104 29.22 32.252 28.664 32.252 27.952C32.252 27.168 32.084 26.568 31.748 26.152C31.452 25.784 31.06 25.6 30.572 25.6ZM37.2908 24.7C38.2188 24.7 38.9268 25.024 39.4148 25.672C39.8468 26.232 40.0628 26.992 40.0628 27.952C40.0628 29.024 39.7828 29.84 39.2228 30.4C38.7428 30.888 38.0948 31.132 37.2788 31.132C36.3348 31.132 35.6148 30.816 35.1188 30.184C34.6868 29.632 34.4708 28.888 34.4708 27.952C34.4708 26.864 34.7548 26.028 35.3228 25.444C35.8108 24.948 36.4668 24.7 37.2908 24.7ZM37.2908 25.6C36.7308 25.6 36.2908 25.812 35.9708 26.236C35.6508 26.652 35.4908 27.224 35.4908 27.952C35.4908 28.712 35.6708 29.292 36.0308 29.692C36.3428 30.044 36.7588 30.22 37.2788 30.22C37.8308 30.22 38.2588 30.02 38.5628 29.62C38.8748 29.22 39.0308 28.664 39.0308 27.952C39.0308 27.168 38.8548 26.568 38.5028 26.152C38.1988 25.784 37.7948 25.6 37.2908 25.6Z" fill="#E8F9FC"/>
</svg>
