<svg width="36" height="36" viewBox="0 0 36 36" fill="none" xmlns="http://www.w3.org/2000/svg">
<path d="M35.4248 30.0112H0.574951V32.3346H35.4248V30.0112Z" fill="#4770E5"/>
<path d="M32.4979 7.37087C30.7999 6.89786 28.9946 6.9314 27.4151 7.46526L27.3502 7.48704L22.6237 9.7334L8.83032 4.24978C8.22818 4.00785 7.5702 3.93989 6.93133 4.05365C6.29246 4.1674 5.69838 4.4583 5.21675 4.89319L3.37015 6.54841C3.17534 6.72306 3.02236 6.93934 2.92257 7.18119C2.82277 7.42304 2.77872 7.68426 2.79368 7.94547C2.80864 8.20667 2.88223 8.46116 3.00899 8.69003C3.13574 8.91891 3.31241 9.11631 3.52588 9.26757L12.0762 15.3269L8.79648 17.045L6.19908 14.6718C5.70246 14.2189 5.08564 13.9191 4.42273 13.8083C3.75982 13.6975 3.07903 13.7806 2.46216 14.0474L1.04966 14.6598C0.828885 14.7555 0.630319 14.8958 0.466468 15.072C0.302617 15.2482 0.177033 15.4564 0.0976263 15.6836C0.01822 15.9107 -0.013287 16.1518 0.00508995 16.3917C0.0234669 16.6316 0.0913297 16.8651 0.204403 17.0775L5.49148 27.0116L34.2848 12.8195C36.0089 12.008 36.2191 10.7107 35.8399 9.76585C35.4197 8.71832 34.2014 7.84541 32.4979 7.37087ZM33.2893 10.7203L33.2785 10.7254L6.48441 23.932L2.55103 16.5409L3.38597 16.1789C3.5916 16.0899 3.81854 16.0622 4.03952 16.0992C4.26049 16.1361 4.4661 16.2361 4.63164 16.387L8.43143 19.8589L16.5143 15.6248L5.46273 7.7927L6.7675 6.6232C6.92804 6.47825 7.12606 6.38129 7.33901 6.34338C7.55196 6.30546 7.77128 6.3281 7.97199 6.40873L22.7064 12.2665L28.2207 9.64584C29.3428 9.28217 30.6793 9.27084 31.8989 9.61585C32.9033 9.90002 33.4368 10.3128 33.6176 10.5294C33.5154 10.6047 33.4054 10.6688 33.2894 10.7205L33.2893 10.7203Z" fill="#4770E5"/>
</svg>
