<svg width="13" height="16" viewBox="0 0 13 16" fill="none" xmlns="http://www.w3.org/2000/svg">
<path d="M7.223 8.17499C7.223 8.83979 6.68395 9.37884 6.01915 9.37884C5.35436 9.37884 4.81531 8.83979 4.81531 8.17499C4.81531 7.51019 5.35436 6.97115 6.01915 6.97115C6.68395 6.97115 7.223 7.51019 7.223 8.17499Z" fill="#333333"/>
<path d="M10.2327 2.7577H8.42692V0.951929C8.42692 0.792313 8.3635 0.639142 8.25064 0.526284C8.13778 0.413425 7.98461 0.350006 7.825 0.350006H4.21346C4.05384 0.350006 3.90067 0.413425 3.78781 0.526284C3.67496 0.639142 3.61154 0.792313 3.61154 0.951929V2.7577H1.80577C1.32733 2.75918 0.868764 2.94983 0.530449 3.28815C0.192134 3.62646 0.00147901 4.08502 0 4.56347V14.1942C0.00147794 14.6727 0.19213 15.1312 0.530449 15.4696C0.868767 15.8079 1.32733 15.9985 1.80577 16H10.2327C10.7111 15.9985 11.1697 15.8079 11.508 15.4696C11.8463 15.1312 12.037 14.6727 12.0385 14.1942V4.56347C12.037 4.08502 11.8463 3.62646 11.508 3.28815C11.1697 2.94983 10.7111 2.75918 10.2327 2.7577ZM4.81538 2.7577V1.55385H7.22307V3.96154H4.81538V2.7577ZM9.02884 14.1942C8.86923 14.1942 8.71606 14.1308 8.6032 14.018C8.49034 13.9051 8.42692 13.7519 8.42692 13.5923C8.42692 11.931 7.34951 10.5827 6.01923 10.5827C4.68894 10.5827 3.61154 11.931 3.61154 13.5923C3.61154 13.8074 3.4968 14.0061 3.31058 14.1136C3.12435 14.2211 2.89487 14.2211 2.70865 14.1136C2.52244 14.0061 2.40769 13.8074 2.40769 13.5923C2.36833 12.1098 3.08769 10.7096 4.31586 9.87827C3.86469 9.42669 3.6113 8.81428 3.61154 8.17583C3.61181 7.53748 3.86561 6.92538 4.31706 6.47393C4.7685 6.02263 5.38078 5.7691 6.01923 5.7691C6.65768 5.7691 7.26996 6.02263 7.7214 6.47393C8.17284 6.92538 8.42664 7.53751 8.42692 8.17583C8.42719 8.81428 8.17379 9.42669 7.7226 9.87827C8.95076 10.7095 9.67011 12.1097 9.63077 13.5923C9.63077 13.7519 9.56735 13.9051 9.45449 14.018C9.34163 14.1308 9.18846 14.1942 9.02884 14.1942Z" fill="#333333"/>
</svg>
