<svg width="36" height="36" viewBox="0 0 36 36" fill="none" xmlns="http://www.w3.org/2000/svg">
<path d="M34.4742 14.9302L27.7038 13.8871L23.5778 7.14688C23.3612 6.79408 23.0573 6.50316 22.6953 6.30225C22.3334 6.10134 21.9257 5.99725 21.5117 6.00006L4.21987 6.13783C3.72094 6.14204 3.23572 6.30156 2.83162 6.59423C2.42752 6.88689 2.12462 7.29815 1.965 7.77088L0 13.5977V26.9946H4.12545C4.44616 28.0371 5.09263 28.9493 5.96997 29.5973C6.84731 30.2453 7.90929 30.595 9 30.595C10.0907 30.595 11.1527 30.2453 12.03 29.5973C12.9074 28.9493 13.5538 28.0371 13.8745 26.9946H21.5254C21.8461 28.0371 22.4926 28.9493 23.37 29.5973C24.2473 30.2453 25.3093 30.595 26.4 30.595C27.4907 30.595 28.5527 30.2453 29.43 29.5973C30.3073 28.9493 30.9538 28.0371 31.2745 26.9946H36V16.7092C36.0019 16.2788 35.8488 15.8621 35.5686 15.5354C35.2884 15.2087 34.8999 14.9938 34.4742 14.9302ZM15.6 8.44708L21.5308 8.39983L24.8383 13.8034L15.6 13.8001V8.44708ZM4.23907 8.53768L13.2 8.46628V13.7993L2.46607 13.7955L4.23907 8.53768ZM9 28.1946C8.46599 28.1946 7.94397 28.0362 7.49996 27.7395C7.05594 27.4429 6.70988 27.0212 6.50552 26.5278C6.30117 26.0345 6.2477 25.4916 6.35188 24.9678C6.45606 24.4441 6.71321 23.963 7.09081 23.5854C7.46841 23.2078 7.9495 22.9506 8.47325 22.8465C8.997 22.7423 9.53988 22.7957 10.0332 23.0001C10.5266 23.2045 10.9483 23.5505 11.245 23.9945C11.5416 24.4385 11.7 24.9606 11.7 25.4946C11.6992 26.2104 11.4145 26.8967 10.9083 27.4029C10.4021 27.9091 9.71584 28.1938 9 28.1946ZM26.4 28.1946C25.866 28.1946 25.344 28.0362 24.8999 27.7395C24.4559 27.4429 24.1099 27.0212 23.9055 26.5278C23.7012 26.0345 23.6477 25.4916 23.7519 24.9678C23.856 24.4441 24.1132 23.963 24.4908 23.5854C24.8684 23.2078 25.3495 22.9506 25.8732 22.8465C26.397 22.7423 26.9399 22.7957 27.4332 23.0001C27.9266 23.2045 28.3483 23.5505 28.645 23.9945C28.9416 24.4385 29.1 24.9606 29.1 25.4946C29.0992 26.2104 28.8145 26.8967 28.3083 27.4029C27.8021 27.9091 27.1158 28.1938 26.4 28.1946ZM33.6 24.5946H31.4188C31.208 23.4169 30.5897 22.3509 29.6722 21.583C28.7547 20.8152 27.5964 20.3945 26.4 20.3945C25.2036 20.3945 24.0453 20.8152 23.1278 21.583C22.2103 22.3509 21.592 23.4169 21.3811 24.5946H14.0188C13.808 23.4169 13.1897 22.3509 12.2722 21.583C11.3547 20.8152 10.1964 20.3945 9 20.3945C7.80359 20.3945 6.64528 20.8152 5.72777 21.583C4.81027 22.3509 4.19199 23.4169 3.98115 24.5946H2.4V16.1965L27.1894 16.2362L33.6 17.2239V24.5946Z" fill="#F7F7F7"/>
</svg>
