<svg width="36" height="36" viewBox="0 0 36 36" fill="none" xmlns="http://www.w3.org/2000/svg">
<path d="M34.4359 14.6435L19.2646 0.685927C18.7714 0.232175 18.1219 -0.0133888 17.4519 0.000563598C16.7818 0.014516 16.1431 0.286905 15.6692 0.760795L1.71606 14.714L1 15.43V36H14.4457V23.1655H21.7797V36H35.2254V15.3699L34.4359 14.6435ZM17.5044 2.44471C17.526 2.44471 17.5127 2.44937 17.5034 2.45846C17.4939 2.44937 17.4829 2.44471 17.5044 2.44471ZM32.7807 33.5553H24.2243V23.1655C24.2243 22.5171 23.9668 21.8953 23.5083 21.4369C23.0499 20.9784 22.428 20.7208 21.7797 20.7208H14.4457C13.7973 20.7208 13.1755 20.9784 12.717 21.4369C12.2586 21.8953 12.001 22.5171 12.001 23.1655V33.5553H3.44467V16.4427L17.5044 2.4894C17.5054 2.48849 17.5055 2.48765 17.5062 2.48673L32.7807 16.4427V33.5553Z" fill="#F7F7F7"/>
</svg>
