<svg width="36" height="36" viewBox="0 0 36 36" fill="none" xmlns="http://www.w3.org/2000/svg">
<path d="M31.7999 25.5524C32.2771 25.5519 32.7346 25.3712 33.0721 25.0502C33.4095 24.7291 33.5993 24.2938 33.5999 23.8397V6.7127C33.5993 6.25863 33.4095 5.8233 33.0721 5.50222C32.7346 5.18114 32.2771 5.00053 31.7999 5H4.1999C3.72268 5.00053 3.26517 5.18114 2.92772 5.50222C2.59028 5.8233 2.40046 6.25863 2.3999 6.7127V23.8397C2.40046 24.2938 2.59028 24.7291 2.92772 25.0502C3.26517 25.3712 3.72268 25.5519 4.1999 25.5524H31.7999ZM4.7999 7.2836H31.1999V23.2688H4.7999V7.2836Z" fill="#4770E5"/>
<path d="M36 27.8359H0V30.1195H36V27.8359Z" fill="#4770E5"/>
</svg>
