<svg width="18" height="18" viewBox="0 0 18 18" fill="none" xmlns="http://www.w3.org/2000/svg">
<path d="M3.77839 3.25398C3.30266 4.4216 3 5.76216 3 7.18912C3 11.6432 5.81084 15.2757 9.35683 15.4919C12.8595 15.2756 15.6704 11.6433 15.6704 7.18912C15.6704 5.76207 15.3677 4.42148 14.892 3.25398C14.3298 3.47024 13.7244 3.55673 13.0758 3.55673C11.5191 3.55673 10.1352 2.95132 9.35687 2C8.5352 2.95132 7.15144 3.55673 5.59471 3.55673C4.94601 3.55673 4.34064 3.47024 3.77852 3.25398H3.77839Z" stroke="#333333"/>
<path fill-rule="evenodd" clip-rule="evenodd" d="M3.21631 9.17831C3.90818 12.6809 6.37299 15.3189 9.31368 15.4919V9.17831H3.21631Z" fill="#333333"/>
<path fill-rule="evenodd" clip-rule="evenodd" d="M15.4541 9.17831C15.5839 8.52961 15.6704 7.88105 15.6704 7.18918C15.6704 5.76214 15.3676 4.42155 14.892 3.25412C14.3298 3.47038 13.7244 3.55685 13.0758 3.55685C11.5191 3.55685 10.1351 2.95146 9.35701 2.00014H9.31372V9.17854H15.4543L15.4541 9.17831Z" fill="#333333"/>
</svg>
