<svg width="14" height="14" viewBox="0 0 14 14" fill="none" xmlns="http://www.w3.org/2000/svg">
<path d="M5.85008 13.5C4.29858 13.5 2.81065 12.8837 1.71342 11.7866C0.616346 10.6895 0 9.20153 0 7.64993C0 6.09833 0.616346 4.6105 1.71342 3.51327C2.81049 2.4162 4.29848 1.79985 5.85008 1.79985C5.96941 1.79985 6.08392 1.84726 6.16829 1.93164C6.25267 2.01601 6.30008 2.13052 6.30008 2.24985V7.19985H11.2501C11.3694 7.19985 11.4839 7.24726 11.5683 7.33164C11.6527 7.41601 11.7001 7.53052 11.7001 7.64985C11.7001 9.20135 11.0837 10.6893 9.98666 11.7865C8.88958 12.8836 7.4016 13.4999 5.85 13.4999L5.85008 13.5ZM5.40008 2.7C4.14761 2.82014 2.98785 3.41278 2.15673 4.35727C1.32555 5.30185 0.885188 6.5275 0.925251 7.78498C0.96533 9.04256 1.48284 10.2378 2.37258 11.1273C3.26224 12.0171 4.45744 12.5346 5.71492 12.5747C6.97251 12.6147 8.19815 12.1744 9.14264 11.3432C10.0871 10.512 10.6798 9.35221 10.7999 8.09983H5.8499C5.73057 8.09983 5.61606 8.05241 5.53168 7.96804C5.44731 7.88367 5.3999 7.76916 5.3999 7.64983L5.40008 2.7Z" fill="#333333"/>
<path d="M13.0501 6.3H7.65007C7.53074 6.3 7.41623 6.25259 7.33186 6.16821C7.24749 6.08384 7.20007 5.96933 7.20007 5.85V0.45C7.20007 0.33067 7.24749 0.216159 7.33186 0.131786C7.41623 0.047412 7.53074 0 7.65007 0C9.20157 0 10.6895 0.616346 11.7867 1.71342C12.8838 2.81049 13.5002 4.29848 13.5002 5.85008C13.5002 5.96941 13.4527 6.08392 13.3684 6.16829C13.284 6.25267 13.1695 6.30008 13.0501 6.30008L13.0501 6.3ZM8.10007 5.4H12.6001C12.4987 4.24054 11.9921 3.15391 11.1691 2.331C10.3462 1.50804 9.25953 1.00139 8.10013 0.900051L8.10007 5.4Z" fill="#333333"/>
</svg>
