<svg width="38" height="30" viewBox="0 0 38 30" fill="none" xmlns="http://www.w3.org/2000/svg">
<path d="M15.1926 0.899999C16.5259 1.23333 17.3926 2.3 17.7926 4.09999C15.8592 5.16666 13.8926 6.76666 11.8926 8.9C9.89258 11.0333 8.49258 13.3667 7.69258 15.9H7.99258C10.5259 15.9 12.4926 16.5667 13.8926 17.9C15.3592 19.1667 16.0926 20.8333 16.0926 22.9C16.0926 24.8333 15.3592 26.4667 13.8926 27.8C12.4926 29.1333 10.7926 29.8 8.79258 29.8C6.39258 29.8 4.49258 28.9667 3.09258 27.3C1.69258 25.5667 0.992578 23.5 0.992578 21.1C0.992578 17.0333 2.29258 13.4 4.89258 10.2C7.49258 7 10.9259 3.9 15.1926 0.899999ZM35.1926 0.899999C36.5259 1.23333 37.3926 2.3 37.7926 4.09999C35.8592 5.16666 33.8926 6.76666 31.8926 8.9C29.8926 11.0333 28.4926 13.3667 27.6926 15.9H27.9926C30.5259 15.9 32.4926 16.5667 33.8926 17.9C35.3592 19.1667 36.0926 20.8333 36.0926 22.9C36.0926 24.8333 35.3592 26.4667 33.8926 27.8C32.4926 29.1333 30.7926 29.8 28.7926 29.8C26.3926 29.8 24.4926 28.9667 23.0926 27.3C21.6926 25.5667 20.9926 23.5 20.9926 21.1C20.9926 17.0333 22.2926 13.4 24.8926 10.2C27.4926 7 30.9259 3.9 35.1926 0.899999Z" fill="#F7F7F7"/>
</svg>
