<svg width="32" height="32" viewBox="0 0 32 32" fill="none" xmlns="http://www.w3.org/2000/svg">
<path d="M30.6221 13.0165L17.1365 0.609713C16.6981 0.206378 16.1208 -0.0119012 15.5252 0.000500976C14.9297 0.0129032 14.3619 0.255026 13.9407 0.676262L1.53786 13.0792L0.901367 13.7156V32H12.8531V20.5915H19.3722V32H31.3239V13.6621L30.6221 13.0165ZM15.572 2.17308C15.5911 2.17308 15.5793 2.17722 15.5711 2.1853C15.5626 2.17722 15.5528 2.17308 15.572 2.17308ZM29.1509 29.827H21.5452V20.5915C21.5452 20.0152 21.3163 19.4625 20.9088 19.055C20.5012 18.6475 19.9485 18.4185 19.3722 18.4185H12.8531C12.2768 18.4185 11.724 18.6475 11.3165 19.055C10.909 19.4625 10.68 20.0152 10.68 20.5915V29.827H3.07441V14.6157L15.572 2.2128C15.5728 2.21199 15.5729 2.21124 15.5736 2.21043L29.1509 14.6157V29.827Z" fill="#4770E5"/>
</svg>
